<svg xmlns="http://www.w3.org/2000/svg" viewBox="0 0 1031.1 77.11"><g id="Слой_2" data-name="Слой 2"><g id="Слой_1-2" data-name="Слой 1"><path d="M14.18,61.92A10,10,0,0,1,9,60.52a10.35,10.35,0,0,1-3.74-3.78,10.17,10.17,0,0,1-1.37-5.19V47.16H14.26v3.89a.51.51,0,0,0,.1.29.34.34,0,0,0,.26.14H44.78a.42.42,0,0,0,.29-.14.43.43,0,0,0,.15-.29V41.62a.33.33,0,0,0-.15-.26.46.46,0,0,0-.29-.1H14.18A10,10,0,0,1,9,39.85a10.32,10.32,0,0,1-3.74-3.74,10.08,10.08,0,0,1-1.37-5.22V20.45a10.17,10.17,0,0,1,1.37-5.19A10.35,10.35,0,0,1,9,11.48a10,10,0,0,1,5.18-1.4H45.36a9.88,9.88,0,0,1,5.15,1.4,11,11,0,0,1,3.78,3.78,9.86,9.86,0,0,1,1.44,5.19v4.39H45.22V21a.43.43,0,0,0-.15-.29.42.42,0,0,0-.29-.14H14.62a.34.34,0,0,0-.26.14.51.51,0,0,0-.1.29v9.43a.34.34,0,0,0,.36.36H45.36a9.8,9.8,0,0,1,5.15,1.41,11,11,0,0,1,3.78,3.74,9.76,9.76,0,0,1,1.44,5.22V51.55a9.86,9.86,0,0,1-1.44,5.19,11,11,0,0,1-3.78,3.78,9.88,9.88,0,0,1-5.15,1.4Z" transform="translate(-3.89 -1.3)"/><path d="M83,70.2V1.3h5.9V70.2Z" transform="translate(-3.89 -1.3)"/><path d="M118.22,61.92V10.08h5.9v23h16.71l19.29-23h7.49v.07L145.94,36l21.75,25.85v.07h-7.57L140.83,39H124.12v23Z" transform="translate(-3.89 -1.3)"/><path d="M179.53,60.73a9.08,9.08,0,0,1-3.17-3.17,8.32,8.32,0,0,1-1.19-4.35V28.87a8.32,8.32,0,0,1,1.19-4.35,9.08,9.08,0,0,1,3.17-3.17,8.32,8.32,0,0,1,4.35-1.19h25.06a8.47,8.47,0,0,1,4.43,1.19,9.08,9.08,0,0,1,3.17,3.17,8.31,8.31,0,0,1,1.18,4.35V44H181.08v9.22a2.67,2.67,0,0,0,.83,2,2.7,2.7,0,0,0,2,.83h33.84v5.9H183.88A8.32,8.32,0,0,1,179.53,60.73Zm1.55-22.64h30.67V28.87a2.83,2.83,0,0,0-2.81-2.81H183.88a2.7,2.7,0,0,0-2,.83,2.67,2.67,0,0,0-.83,2Z" transform="translate(-3.89 -1.3)"/><path d="M228.27,60.73a9.16,9.16,0,0,1-3.17-3.17,8.31,8.31,0,0,1-1.18-4.35V28.87a8.31,8.31,0,0,1,1.18-4.35,9.16,9.16,0,0,1,3.17-3.17,8.33,8.33,0,0,1,4.36-1.19h25.05a8.47,8.47,0,0,1,4.43,1.19,9.08,9.08,0,0,1,3.17,3.17,8.32,8.32,0,0,1,1.19,4.35V44H229.82v9.22A2.83,2.83,0,0,0,232.63,56h33.84v5.9H232.63A8.33,8.33,0,0,1,228.27,60.73Zm1.55-22.64h30.67V28.87a2.67,2.67,0,0,0-.83-2,2.71,2.71,0,0,0-2-.83H232.63a2.83,2.83,0,0,0-2.81,2.81Z" transform="translate(-3.89 -1.3)"/><path d="M274,61.92V20.16h33.84a8.33,8.33,0,0,1,4.36,1.19,9.08,9.08,0,0,1,3.17,3.17,8.32,8.32,0,0,1,1.19,4.35V61.92H310.6v-33a2.67,2.67,0,0,0-.83-2,2.71,2.71,0,0,0-2-.83H282.74a2.85,2.85,0,0,0-2,.83,2.66,2.66,0,0,0-.86,2V61.92Z" transform="translate(-3.89 -1.3)"/><path d="M328.21,60.73A9.08,9.08,0,0,1,325,57.56a8.32,8.32,0,0,1-1.19-4.35V28.87A8.32,8.32,0,0,1,325,24.52a9.08,9.08,0,0,1,3.17-3.17,8.32,8.32,0,0,1,4.35-1.19h25.06a8.47,8.47,0,0,1,4.43,1.19,9.16,9.16,0,0,1,3.17,3.17,8.31,8.31,0,0,1,1.18,4.35V44H329.76v9.22a2.82,2.82,0,0,0,2.8,2.81H366.4v5.9H332.56A8.32,8.32,0,0,1,328.21,60.73Zm1.55-22.64h30.67V28.87a2.83,2.83,0,0,0-2.81-2.81H332.56a2.82,2.82,0,0,0-2.8,2.81Z" transform="translate(-3.89 -1.3)"/><path d="M378.1,60.73A8.8,8.8,0,0,1,375,57.56a8.47,8.47,0,0,1-1.15-4.35V6.48h5.9V20.16h18.07v5.9H379.72V53.21A2.83,2.83,0,0,0,382.53,56h15.26v5.9H382.53A8.47,8.47,0,0,1,378.1,60.73Z" transform="translate(-3.89 -1.3)"/><path d="M403.62,12.38V6.48h5.91v5.9Zm0,49.54V20.16h5.91V61.92Z" transform="translate(-3.89 -1.3)"/><path d="M421.8,60.73a9.05,9.05,0,0,1-3.16-3.17,8.23,8.23,0,0,1-1.19-4.35V28.87a8.23,8.23,0,0,1,1.19-4.35,9.05,9.05,0,0,1,3.16-3.17,8.35,8.35,0,0,1,4.36-1.19h33.7v5.9h-33.7a2.83,2.83,0,0,0-2.81,2.81V53.21A2.83,2.83,0,0,0,426.16,56H460v5.9H426.16A8.35,8.35,0,0,1,421.8,60.73Z" transform="translate(-3.89 -1.3)"/><path d="M487.57,61.92V10.08h43.2a8.57,8.57,0,0,1,8.64,8.64V53.28a8.57,8.57,0,0,1-8.64,8.64Zm8.64-5.83h34.56a2.71,2.71,0,0,0,2-.83,2.67,2.67,0,0,0,.83-2V18.72a2.67,2.67,0,0,0-.83-2,2.71,2.71,0,0,0-2-.83H496.21a2.74,2.74,0,0,0-2,.83,2.7,2.7,0,0,0-.82,2V53.28a2.7,2.7,0,0,0,.82,2A2.74,2.74,0,0,0,496.21,56.09Z" transform="translate(-3.89 -1.3)"/><path d="M547.48,61.92V10.08h8l38,45.22V10.08h5.83V61.92h-8l-38-45.22V61.92Z" transform="translate(-3.89 -1.3)"/><path d="M615.66,61.92A8.57,8.57,0,0,1,607,53.28v-2h5.83v2a2.83,2.83,0,0,0,2.81,2.81h34.56A2.83,2.83,0,0,0,653,53.28V41.69a2.61,2.61,0,0,0-.83-1.95,2.79,2.79,0,0,0-2-.79H615.66a8.2,8.2,0,0,1-4.35-1.19,8.8,8.8,0,0,1-3.14-3.13A8.26,8.26,0,0,1,607,30.31V18.72a8.58,8.58,0,0,1,8.64-8.64h34.56a8.57,8.57,0,0,1,8.64,8.64v2H653v-2a2.83,2.83,0,0,0-2.81-2.81H615.66a2.83,2.83,0,0,0-2.81,2.81V30.31a2.61,2.61,0,0,0,.83,1.95,2.75,2.75,0,0,0,2,.79h34.56a8.24,8.24,0,0,1,4.36,1.19,8.85,8.85,0,0,1,3.13,3.13,8.26,8.26,0,0,1,1.15,4.32V53.28a8.57,8.57,0,0,1-8.64,8.64Z" transform="translate(-3.89 -1.3)"/><path d="M686,61.92V20.16h55.16a8.44,8.44,0,0,1,4.42,1.19,8.83,8.83,0,0,1,3.14,3.17,8.57,8.57,0,0,1,1.15,4.35V61.92H744v-33a2.63,2.63,0,0,0-.87-2,2.82,2.82,0,0,0-2-.83H723.8a2.82,2.82,0,0,0-2.8,2.81V61.92h-6v-33a2.83,2.83,0,0,0-2.81-2.81H694.79A2.83,2.83,0,0,0,692,28.87V61.92Z" transform="translate(-3.89 -1.3)"/><path d="M765,61.92a8.33,8.33,0,0,1-4.36-1.19,9.16,9.16,0,0,1-3.17-3.17,8.31,8.31,0,0,1-1.18-4.35V38.09h36.57V28.87A2.83,2.83,0,0,0,790,26.06H756.28v-5.9H790a8.45,8.45,0,0,1,4.43,1.19,9.08,9.08,0,0,1,3.17,3.17,8.32,8.32,0,0,1,1.19,4.35V61.92Zm0-5.9h27.86V44H762.18v9.22A2.83,2.83,0,0,0,765,56Z" transform="translate(-3.89 -1.3)"/><path d="M805.31,61.92V20.16h33.84a8.32,8.32,0,0,1,4.35,1.19,9.08,9.08,0,0,1,3.17,3.17,8.32,8.32,0,0,1,1.19,4.35V61.92H842v-33a2.7,2.7,0,0,0-.82-2,2.74,2.74,0,0,0-2-.83H814.09a2.85,2.85,0,0,0-2,.83,2.66,2.66,0,0,0-.86,2V61.92Z" transform="translate(-3.89 -1.3)"/><path d="M864,61.92a8.33,8.33,0,0,1-4.36-1.19,9.08,9.08,0,0,1-3.17-3.17,8.32,8.32,0,0,1-1.19-4.35V38.09h36.58V28.87A2.83,2.83,0,0,0,889,26.06H855.27v-5.9H889a8.47,8.47,0,0,1,4.43,1.19,9.08,9.08,0,0,1,3.17,3.17,8.32,8.32,0,0,1,1.19,4.35V61.92Zm0-5.9h27.86V44H861.18v9.22a2.67,2.67,0,0,0,.83,2A2.71,2.71,0,0,0,864,56Z" transform="translate(-3.89 -1.3)"/><path d="M912.15,78.41v-6h26.07A2.83,2.83,0,0,0,941,69.62v-7.7H913.16a8.32,8.32,0,0,1-4.35-1.19,9,9,0,0,1-3.17-3.17,8.32,8.32,0,0,1-1.19-4.35V28.87a8.32,8.32,0,0,1,1.19-4.35,9,9,0,0,1,3.17-3.17,8.32,8.32,0,0,1,4.35-1.19h25.06a8.5,8.5,0,0,1,4.43,1.19,8.8,8.8,0,0,1,3.13,3.17,8.57,8.57,0,0,1,1.15,4.35V69.62a8.7,8.7,0,0,1-4.28,7.6,8.5,8.5,0,0,1-4.43,1.19Zm1-22.39h25.06A2.83,2.83,0,0,0,941,53.21V28.87a2.83,2.83,0,0,0-2.81-2.81H913.16a2.83,2.83,0,0,0-2.81,2.81V53.21A2.83,2.83,0,0,0,913.16,56Z" transform="translate(-3.89 -1.3)"/><path d="M957.62,60.73a9.16,9.16,0,0,1-3.17-3.17,8.31,8.31,0,0,1-1.18-4.35V28.87a8.31,8.31,0,0,1,1.18-4.35,9.16,9.16,0,0,1,3.17-3.17A8.33,8.33,0,0,1,962,20.16h25a8.47,8.47,0,0,1,4.43,1.19,9.08,9.08,0,0,1,3.17,3.17,8.32,8.32,0,0,1,1.19,4.35V44H959.17v9.22a2.67,2.67,0,0,0,.83,2,2.71,2.71,0,0,0,2,.83h33.84v5.9H962A8.33,8.33,0,0,1,957.62,60.73Zm1.55-22.64h30.67V28.87A2.83,2.83,0,0,0,987,26.06H962a2.71,2.71,0,0,0-2,.83,2.67,2.67,0,0,0-.83,2Z" transform="translate(-3.89 -1.3)"/><path d="M1002.8,61.92v-33a8.32,8.32,0,0,1,1.19-4.35,9.08,9.08,0,0,1,3.17-3.17,8.32,8.32,0,0,1,4.35-1.19H1035v5.9h-23.47a2.82,2.82,0,0,0-2.8,2.81V61.92Z" transform="translate(-3.89 -1.3)"/></g></g></svg>