<svg xmlns="http://www.w3.org/2000/svg" viewBox="0 0 458.58 51.92"><path d="M10.29,51.92a10,10,0,0,1-5.18-1.4,10.43,10.43,0,0,1-3.74-3.78A10.18,10.18,0,0,1,0,41.55V37.16H10.37v3.89a.51.51,0,0,0,.1.29.34.34,0,0,0,.26.14H40.89a.44.44,0,0,0,.29-.14.41.41,0,0,0,.15-.29V31.62a.31.31,0,0,0-.15-.26.43.43,0,0,0-.29-.1H10.29a10.06,10.06,0,0,1-5.18-1.41,10.32,10.32,0,0,1-3.74-3.74A10.07,10.07,0,0,1,0,20.89V10.45A10.18,10.18,0,0,1,1.37,5.26,10.43,10.43,0,0,1,5.11,1.48,10,10,0,0,1,10.29.08H41.47a9.92,9.92,0,0,1,5.15,1.4A11,11,0,0,1,50.4,5.26a9.88,9.88,0,0,1,1.44,5.19v4.39H41.33V11a.41.41,0,0,0-.15-.29.44.44,0,0,0-.29-.14H10.73a.34.34,0,0,0-.26.14.51.51,0,0,0-.1.29v9.43a.34.34,0,0,0,.32.36H41.47a9.72,9.72,0,0,1,5.15,1.41,10.91,10.91,0,0,1,3.78,3.74,9.81,9.81,0,0,1,1.44,5.22V41.55a9.88,9.88,0,0,1-1.44,5.19,11,11,0,0,1-3.78,3.78,9.92,9.92,0,0,1-5.15,1.4Z"/><path d="M59.83,51.92V.08h47.81V10.52H70.34V20.74h30V31.26h-30V41.48h37.3V51.92Z"/><path d="M114.91,51.92V0h10.37V41.48h41.47V51.92Z"/><path d="M178.63,51.92V32.55L154.63.08h12.31l16.87,21.17L200.59.08H213L189.11,32.62v19.3Z"/><path d="M222,50.52a10.69,10.69,0,0,1-3.78-3.78,10.09,10.09,0,0,1-1.4-5.19V.08h10.37v41a.44.44,0,0,0,.14.29.47.47,0,0,0,.29.14h30.1a.42.42,0,0,0,.28-.14.41.41,0,0,0,.15-.29V.08h10.51V41.55a9.88,9.88,0,0,1-1.44,5.19,11,11,0,0,1-3.78,3.78,9.92,9.92,0,0,1-5.15,1.4h-31.1A10.09,10.09,0,0,1,222,50.52Z"/><path d="M276.62,51.92V.08h10.49V20.74h11.16L315.55.08h11.09V3.39L307.58,26l19,22.61v3.31H315.5L298.22,31.26H287.11V51.92Z"/><path d="M344.16,51.92a10.09,10.09,0,0,1-5.19-1.4,10.69,10.69,0,0,1-3.78-3.78,10.09,10.09,0,0,1-1.4-5.19V10.45a10.09,10.09,0,0,1,1.4-5.19A10.69,10.69,0,0,1,339,1.48a10.09,10.09,0,0,1,5.19-1.4h31.1a9.92,9.92,0,0,1,5.15,1.4,11,11,0,0,1,3.78,3.78,9.88,9.88,0,0,1,1.44,5.19v31.1a9.88,9.88,0,0,1-1.44,5.19,11,11,0,0,1-3.78,3.78,9.92,9.92,0,0,1-5.15,1.4Zm.43-10.44h30.09a.44.44,0,0,0,.29-.14.41.41,0,0,0,.15-.29V11a.41.41,0,0,0-.15-.29.44.44,0,0,0-.29-.14H344.59a.47.47,0,0,0-.29.14.44.44,0,0,0-.14.29V41.1a.44.44,0,0,0,.14.29.44.44,0,0,0,.29.09Z"/><path d="M419.61,51.92,389.61.08h12L424.11,39,446.58.05h12l-30,51.84Z"/></svg>