<svg xmlns="http://www.w3.org/2000/svg" viewBox="0 0 51.84 51.84"><path d="M10.29,51.84a10,10,0,0,1-5.18-1.4,10.5,10.5,0,0,1-3.74-3.78A10.28,10.28,0,0,1,0,41.47V37.08H10.37V41a.51.51,0,0,0,.1.29.34.34,0,0,0,.26.14H40.89a.44.44,0,0,0,.29-.14.41.41,0,0,0,.15-.29V31.54a.31.31,0,0,0-.15-.26.43.43,0,0,0-.29-.1H10.29a10.06,10.06,0,0,1-5.18-1.41A10.32,10.32,0,0,1,1.37,26,10.07,10.07,0,0,1,0,20.81V10.37A10.28,10.28,0,0,1,1.37,5.18,10.5,10.5,0,0,1,5.11,1.4,10,10,0,0,1,10.29,0H41.47a9.94,9.94,0,0,1,5.15,1.4A11,11,0,0,1,50.4,5.18a9.88,9.88,0,0,1,1.44,5.19v4.39H41.33V10.92a.41.41,0,0,0-.15-.29.44.44,0,0,0-.29-.14H10.73a.34.34,0,0,0-.26.14.51.51,0,0,0-.1.29v9.43a.34.34,0,0,0,.32.36H41.47a9.72,9.72,0,0,1,5.15,1.41,10.91,10.91,0,0,1,3.78,3.74,9.81,9.81,0,0,1,1.44,5.22V41.47a9.88,9.88,0,0,1-1.44,5.19,11,11,0,0,1-3.78,3.78,9.94,9.94,0,0,1-5.15,1.4Z"/></svg>