<svg xmlns="http://www.w3.org/2000/svg" viewBox="0 0 1434.73 77.11"><g id="Слой_2" data-name="Слой 2"><g id="Слой_1-2" data-name="Слой 1"><path d="M14.18,61.92A10,10,0,0,1,9,60.52a10.35,10.35,0,0,1-3.74-3.78,10.17,10.17,0,0,1-1.37-5.19V47.16H14.26v3.89a.51.51,0,0,0,.1.29.34.34,0,0,0,.26.14H44.78a.42.42,0,0,0,.29-.14.43.43,0,0,0,.15-.29V41.62a.33.33,0,0,0-.15-.26.46.46,0,0,0-.29-.1H14.18A10,10,0,0,1,9,39.85a10.32,10.32,0,0,1-3.74-3.74,10.08,10.08,0,0,1-1.37-5.22V20.45a10.17,10.17,0,0,1,1.37-5.19A10.35,10.35,0,0,1,9,11.48a10,10,0,0,1,5.18-1.4H45.36a9.88,9.88,0,0,1,5.15,1.4,11,11,0,0,1,3.78,3.78,9.86,9.86,0,0,1,1.44,5.19v4.39H45.22V21a.43.43,0,0,0-.15-.29.42.42,0,0,0-.29-.14H14.62a.34.34,0,0,0-.26.14.51.51,0,0,0-.1.29v9.43a.34.34,0,0,0,.36.36H45.36a9.8,9.8,0,0,1,5.15,1.41,11,11,0,0,1,3.78,3.74,9.76,9.76,0,0,1,1.44,5.22V51.55a9.86,9.86,0,0,1-1.44,5.19,11,11,0,0,1-3.78,3.78,9.88,9.88,0,0,1-5.15,1.4Z" transform="translate(-3.89 -1.3)"/><path d="M63.72,61.92V10.08h47.81V20.52H74.23V30.74h30V41.26h-30V51.48h37.3V61.92Z" transform="translate(-3.89 -1.3)"/><path d="M118.8,61.92V10h10.37V51.48h41.47V61.92Z" transform="translate(-3.89 -1.3)"/><path d="M182.52,61.92V42.55l-24-32.47h12.32L187.7,31.25l16.78-21.17h12.46L193,42.62v19.3Z" transform="translate(-3.89 -1.3)"/><path d="M225.86,60.52a10.69,10.69,0,0,1-3.78-3.78,10.1,10.1,0,0,1-1.4-5.19V10.08h10.37v41a.41.41,0,0,0,.14.29.44.44,0,0,0,.29.14h30.09a.42.42,0,0,0,.29-.14.43.43,0,0,0,.15-.29v-41h10.51V51.55a9.86,9.86,0,0,1-1.44,5.19,11,11,0,0,1-3.78,3.78,9.88,9.88,0,0,1-5.15,1.4h-31.1A10.08,10.08,0,0,1,225.86,60.52Z" transform="translate(-3.89 -1.3)"/><path d="M280.51,61.92V10.08H291V30.74h11.16l17.28-20.66h11.09v3.31L311.47,36l19,22.61v3.31H319.39L302.11,41.26H291V61.92Z" transform="translate(-3.89 -1.3)"/><path d="M348.05,61.92a10.08,10.08,0,0,1-5.19-1.4,10.69,10.69,0,0,1-3.78-3.78,10.1,10.1,0,0,1-1.4-5.19V20.45a10.1,10.1,0,0,1,1.4-5.19,10.69,10.69,0,0,1,3.78-3.78,10.08,10.08,0,0,1,5.19-1.4h31.1a9.88,9.88,0,0,1,5.15,1.4,11,11,0,0,1,3.78,3.78,9.86,9.86,0,0,1,1.44,5.19v31.1a9.86,9.86,0,0,1-1.44,5.19,11,11,0,0,1-3.78,3.78,9.88,9.88,0,0,1-5.15,1.4Zm.43-10.44h30.09a.42.42,0,0,0,.29-.14.43.43,0,0,0,.15-.29V21a.43.43,0,0,0-.15-.29.42.42,0,0,0-.29-.14H348.48a.44.44,0,0,0-.29.14.41.41,0,0,0-.14.29v30.1a.41.41,0,0,0,.14.29A.44.44,0,0,0,348.48,51.48Z" transform="translate(-3.89 -1.3)"/><path d="M423.5,61.92l-30-51.84h12L428,49l22.46-38.95h12l-30,51.84Z" transform="translate(-3.89 -1.3)"/><path d="M486.64,70.2V1.3h5.91V70.2Z" transform="translate(-3.89 -1.3)"/><path d="M521.85,61.92V10.08h5.9v23h16.71l19.29-23h7.49v.07L549.57,36l21.74,25.85v.07h-7.56L544.46,39H527.75v23Z" transform="translate(-3.89 -1.3)"/><path d="M583.16,60.73A9.08,9.08,0,0,1,580,57.56a8.32,8.32,0,0,1-1.19-4.35V28.87A8.32,8.32,0,0,1,580,24.52a9.08,9.08,0,0,1,3.17-3.17,8.32,8.32,0,0,1,4.35-1.19h25.06A8.47,8.47,0,0,1,617,21.35a9.16,9.16,0,0,1,3.17,3.17,8.31,8.31,0,0,1,1.18,4.35V44H584.71v9.22a2.7,2.7,0,0,0,.82,2,2.74,2.74,0,0,0,2,.83h33.84v5.9H587.51A8.32,8.32,0,0,1,583.16,60.73Zm1.55-22.64h30.67V28.87a2.83,2.83,0,0,0-2.81-2.81H587.51a2.74,2.74,0,0,0-2,.83,2.7,2.7,0,0,0-.82,2Z" transform="translate(-3.89 -1.3)"/><path d="M631.9,60.73a9.08,9.08,0,0,1-3.17-3.17,8.32,8.32,0,0,1-1.19-4.35V28.87a8.32,8.32,0,0,1,1.19-4.35,9.08,9.08,0,0,1,3.17-3.17,8.33,8.33,0,0,1,4.36-1.19h25a8.47,8.47,0,0,1,4.43,1.19,9.08,9.08,0,0,1,3.17,3.17,8.32,8.32,0,0,1,1.19,4.35V44H633.45v9.22a2.67,2.67,0,0,0,.83,2,2.71,2.71,0,0,0,2,.83H670.1v5.9H636.26A8.33,8.33,0,0,1,631.9,60.73Zm1.55-22.64h30.67V28.87a2.83,2.83,0,0,0-2.81-2.81h-25a2.71,2.71,0,0,0-2,.83,2.67,2.67,0,0,0-.83,2Z" transform="translate(-3.89 -1.3)"/><path d="M677.58,61.92V20.16h33.84a8.33,8.33,0,0,1,4.36,1.19A9.08,9.08,0,0,1,719,24.52a8.32,8.32,0,0,1,1.19,4.35V61.92h-5.91v-33a2.83,2.83,0,0,0-2.81-2.81h-25a2.85,2.85,0,0,0-2,.83,2.66,2.66,0,0,0-.86,2V61.92Z" transform="translate(-3.89 -1.3)"/><path d="M731.84,60.73a9.08,9.08,0,0,1-3.17-3.17,8.32,8.32,0,0,1-1.19-4.35V28.87a8.32,8.32,0,0,1,1.19-4.35,9.08,9.08,0,0,1,3.17-3.17,8.32,8.32,0,0,1,4.35-1.19h25.06a8.5,8.5,0,0,1,4.43,1.19,9.05,9.05,0,0,1,3.16,3.17A8.23,8.23,0,0,1,770,28.87V44H733.38v9.22A2.83,2.83,0,0,0,736.19,56H770v5.9H736.19A8.32,8.32,0,0,1,731.84,60.73Zm1.54-22.64h30.68V28.87a2.83,2.83,0,0,0-2.81-2.81H736.19a2.83,2.83,0,0,0-2.81,2.81Z" transform="translate(-3.89 -1.3)"/><path d="M781.73,60.73a8.8,8.8,0,0,1-3.13-3.17,8.47,8.47,0,0,1-1.15-4.35V6.48h5.9V20.16h18.07v5.9H783.35V53.21A2.83,2.83,0,0,0,786.16,56h15.26v5.9H786.16A8.47,8.47,0,0,1,781.73,60.73Z" transform="translate(-3.89 -1.3)"/><path d="M807.25,12.38V6.48h5.91v5.9Zm0,49.54V20.16h5.91V61.92Z" transform="translate(-3.89 -1.3)"/><path d="M825.43,60.73a9.05,9.05,0,0,1-3.16-3.17,8.23,8.23,0,0,1-1.19-4.35V28.87a8.23,8.23,0,0,1,1.19-4.35,9.05,9.05,0,0,1,3.16-3.17,8.33,8.33,0,0,1,4.36-1.19h33.69v5.9H829.79A2.83,2.83,0,0,0,827,28.87V53.21A2.83,2.83,0,0,0,829.79,56h33.84v5.9H829.79A8.33,8.33,0,0,1,825.43,60.73Z" transform="translate(-3.89 -1.3)"/><path d="M891.2,61.92V10.08h43.2A8.57,8.57,0,0,1,943,18.72V53.28a8.57,8.57,0,0,1-8.64,8.64Zm8.64-5.83H934.4a2.83,2.83,0,0,0,2.81-2.81V18.72a2.83,2.83,0,0,0-2.81-2.81H899.84A2.83,2.83,0,0,0,897,18.72V53.28a2.83,2.83,0,0,0,2.81,2.81Z" transform="translate(-3.89 -1.3)"/><path d="M951.11,61.92V10.08h8l38,45.22V10.08H1003V61.92h-8l-38-45.22V61.92Z" transform="translate(-3.89 -1.3)"/><path d="M1019.29,61.92a8.57,8.57,0,0,1-8.64-8.64v-2h5.83v2a2.83,2.83,0,0,0,2.81,2.81h34.56a2.83,2.83,0,0,0,2.81-2.81V41.69a2.61,2.61,0,0,0-.83-1.95,2.79,2.79,0,0,0-2-.79h-34.56a8.26,8.26,0,0,1-4.36-1.19,8.85,8.85,0,0,1-3.13-3.13,8.26,8.26,0,0,1-1.15-4.32V18.72a8.57,8.57,0,0,1,8.64-8.64h34.56a8.57,8.57,0,0,1,7.49,4.28,8.61,8.61,0,0,1,1.15,4.36v2h-5.83v-2a2.83,2.83,0,0,0-2.81-2.81h-34.56a2.83,2.83,0,0,0-2.81,2.81V30.31a2.61,2.61,0,0,0,.83,1.95,2.75,2.75,0,0,0,2,.79h34.56a8.26,8.26,0,0,1,4.36,1.19,8.85,8.85,0,0,1,3.13,3.13,8.36,8.36,0,0,1,1.15,4.32V53.28a8.57,8.57,0,0,1-4.28,7.49,8.51,8.51,0,0,1-4.36,1.15Z" transform="translate(-3.89 -1.3)"/><path d="M1089.63,61.92V20.16h55.15a8.45,8.45,0,0,1,4.43,1.19,8.73,8.73,0,0,1,3.13,3.17,8.48,8.48,0,0,1,1.16,4.35V61.92h-5.84v-33a2.62,2.62,0,0,0-.86-2,2.83,2.83,0,0,0-2-.83h-17.35a2.83,2.83,0,0,0-2.81,2.81V61.92h-6v-33a2.83,2.83,0,0,0-2.81-2.81h-17.42a2.71,2.71,0,0,0-2,.83,2.67,2.67,0,0,0-.83,2V61.92Z" transform="translate(-3.89 -1.3)"/><path d="M1168.62,61.92a8.33,8.33,0,0,1-4.36-1.19,9.08,9.08,0,0,1-3.17-3.17,8.32,8.32,0,0,1-1.19-4.35V38.09h36.58V28.87a2.83,2.83,0,0,0-2.81-2.81H1159.9v-5.9h33.77a8.47,8.47,0,0,1,4.43,1.19,9.08,9.08,0,0,1,3.17,3.17,8.32,8.32,0,0,1,1.19,4.35V61.92Zm0-5.9h27.86V44h-30.67v9.22a2.67,2.67,0,0,0,.83,2A2.71,2.71,0,0,0,1168.62,56Z" transform="translate(-3.89 -1.3)"/><path d="M1208.94,61.92V20.16h33.83a8.33,8.33,0,0,1,4.36,1.19,9.08,9.08,0,0,1,3.17,3.17,8.32,8.32,0,0,1,1.19,4.35V61.92h-5.91v-33a2.7,2.7,0,0,0-.82-2,2.74,2.74,0,0,0-2-.83h-25a2.85,2.85,0,0,0-2,.83,2.66,2.66,0,0,0-.86,2V61.92Z" transform="translate(-3.89 -1.3)"/><path d="M1267.62,61.92a8.33,8.33,0,0,1-4.36-1.19,9.08,9.08,0,0,1-3.17-3.17,8.32,8.32,0,0,1-1.19-4.35V38.09h36.58V28.87a2.83,2.83,0,0,0-2.81-2.81H1258.9v-5.9h33.77a8.47,8.47,0,0,1,4.43,1.19,9.08,9.08,0,0,1,3.17,3.17,8.32,8.32,0,0,1,1.19,4.35V61.92Zm0-5.9h27.86V44h-30.67v9.22a2.67,2.67,0,0,0,.83,2A2.71,2.71,0,0,0,1267.62,56Z" transform="translate(-3.89 -1.3)"/><path d="M1315.78,78.41v-6h26.07a2.82,2.82,0,0,0,2.8-2.81v-7.7h-27.86a8.35,8.35,0,0,1-4.36-1.19,9.05,9.05,0,0,1-3.16-3.17,8.23,8.23,0,0,1-1.19-4.35V28.87a8.23,8.23,0,0,1,1.19-4.35,9.05,9.05,0,0,1,3.16-3.17,8.35,8.35,0,0,1,4.36-1.19h25.06a8.44,8.44,0,0,1,4.42,1.19,8.83,8.83,0,0,1,3.14,3.17,8.57,8.57,0,0,1,1.15,4.35V69.62a8.73,8.73,0,0,1-1.15,4.43,8.83,8.83,0,0,1-3.14,3.17,8.44,8.44,0,0,1-4.42,1.19Zm1-22.39h25.06a2.74,2.74,0,0,0,2-.83,2.7,2.7,0,0,0,.82-2V28.87a2.7,2.7,0,0,0-.82-2,2.74,2.74,0,0,0-2-.83h-25.06a2.83,2.83,0,0,0-2.81,2.81V53.21a2.83,2.83,0,0,0,2.81,2.81Z" transform="translate(-3.89 -1.3)"/><path d="M1361.25,60.73a9.08,9.08,0,0,1-3.17-3.17,8.32,8.32,0,0,1-1.19-4.35V28.87a8.32,8.32,0,0,1,1.19-4.35,9.08,9.08,0,0,1,3.17-3.17,8.33,8.33,0,0,1,4.36-1.19h25.05a8.47,8.47,0,0,1,4.43,1.19,9.08,9.08,0,0,1,3.17,3.17,8.32,8.32,0,0,1,1.19,4.35V44H1362.8v9.22a2.67,2.67,0,0,0,.83,2,2.71,2.71,0,0,0,2,.83h33.84v5.9h-33.84A8.33,8.33,0,0,1,1361.25,60.73Zm1.55-22.64h30.67V28.87a2.83,2.83,0,0,0-2.81-2.81h-25.05a2.71,2.71,0,0,0-2,.83,2.67,2.67,0,0,0-.83,2Z" transform="translate(-3.89 -1.3)"/><path d="M1406.43,61.92v-33a8.32,8.32,0,0,1,1.19-4.35,9.08,9.08,0,0,1,3.17-3.17,8.32,8.32,0,0,1,4.35-1.19h23.47v5.9h-23.47a2.83,2.83,0,0,0-2.81,2.81V61.92Z" transform="translate(-3.89 -1.3)"/></g></g></svg>